<?xml version="1.0" encoding="UTF-8" standalone="no"?>
<!-- Created with Inkscape (http://www.inkscape.org/) -->

<svg
   version="1.1"
   id="svg1"
   width="85.011108"
   height="48.707886"
   viewBox="0 0 85.011108 48.707886"
   sodipodi:docname="logo.svg"
   inkscape:version="1.3 (0e150ed6c4, 2023-07-21)"
   xmlns:inkscape="http://www.inkscape.org/namespaces/inkscape"
   xmlns:sodipodi="http://sodipodi.sourceforge.net/DTD/sodipodi-0.dtd"
   xmlns="http://www.w3.org/2000/svg"
   xmlns:svg="http://www.w3.org/2000/svg">
  <defs
     id="defs1">
    <filter
       inkscape:collect="always"
       style="color-interpolation-filters:sRGB"
       id="filter6"
       x="-6.5175063e-05"
       y="-0.00011376272"
       width="1.0001304"
       height="1.0002275">
      <feGaussianBlur
         inkscape:collect="always"
         stdDeviation="0.0023082841"
         id="feGaussianBlur6" />
    </filter>
  </defs>
  <sodipodi:namedview
     id="namedview1"
     pagecolor="#ffffff"
     bordercolor="#000000"
     borderopacity="0.25"
     inkscape:showpageshadow="2"
     inkscape:pageopacity="0.0"
     inkscape:pagecheckerboard="0"
     inkscape:deskcolor="#d1d1d1"
     showgrid="false"
     inkscape:export-bgcolor="#ffffff00"
     inkscape:zoom="1.0336926"
     inkscape:cx="396.63629"
     inkscape:cy="371.00004"
     inkscape:window-width="1920"
     inkscape:window-height="1017"
     inkscape:window-x="-8"
     inkscape:window-y="-8"
     inkscape:window-maximized="1"
     inkscape:current-layer="g1" />
  <g
     inkscape:groupmode="layer"
     inkscape:label="Image"
     id="g1"
     transform="translate(-479.36456,-485.26996)">
    <path
       style="display:inline;mix-blend-mode:normal;fill:#000000;stroke-width:1.02271;paint-order:markers stroke fill;filter:url(#filter6)"
       d="m 480.01506,533.91277 c -0.097,-0.0303 -0.24083,-0.10428 -0.31972,-0.16446 -0.0788,-0.0601 -0.18455,-0.18713 -0.2348,-0.28214 -0.0713,-0.13469 -0.0912,-0.24077 -0.0904,-0.48176 0.001,-0.30724 0.0497,-0.44295 8.35562,-23.26022 4.59508,-12.62315 8.40955,-23.06521 8.4766,-23.20459 0.067,-0.13937 0.22827,-0.36379 0.35827,-0.49871 0.13001,-0.13491 0.33836,-0.31036 0.46301,-0.38988 0.12464,-0.0796 0.34715,-0.18886 0.49446,-0.24298 0.26782,-0.0984 0.26782,-0.0984 3.95568,-0.0984 3.45896,0 3.69983,0.005 3.88093,0.0745 0.10622,0.041 0.25696,0.14518 0.33499,0.23154 0.078,0.0864 0.16463,0.22604 0.19246,0.31039 0.0287,0.0869 0.0432,0.27222 0.0334,0.42774 -0.015,0.2403 -1.05735,3.13212 -8.39334,23.28735 -4.82314,13.25129 -8.43139,23.10645 -8.50636,23.23332 -0.0716,0.1212 -0.25105,0.33443 -0.39871,0.47387 -0.14766,0.13942 -0.38117,0.31331 -0.51891,0.3864 -0.13771,0.0731 -0.36919,0.16089 -0.51439,0.19512 -0.22519,0.0531 -0.78798,0.0619 -3.82822,0.0601 -2.8535,-0.002 -3.5994,-0.0131 -3.74053,-0.0572 z m 14.875,0 c -0.0969,-0.0303 -0.24083,-0.10428 -0.31971,-0.16446 -0.0788,-0.0601 -0.18456,-0.18713 -0.23482,-0.28214 -0.0715,-0.13507 -0.091,-0.24011 -0.0899,-0.48176 10e-4,-0.30679 0.0624,-0.47632 8.39389,-23.35476 4.61585,-12.67513 8.44346,-23.13295 8.50581,-23.2396 0.0624,-0.10664 0.23018,-0.30922 0.373,-0.45017 0.17877,-0.17644 0.36506,-0.30814 0.5981,-0.42281 0.18616,-0.0916 0.44267,-0.18538 0.57004,-0.20839 0.14842,-0.0268 1.51697,-0.0377 3.81145,-0.0305 3.52852,0.0113 3.58254,0.0126 3.76532,0.0973 0.10197,0.0473 0.24372,0.15224 0.31497,0.23339 0.0713,0.0812 0.15206,0.21574 0.17956,0.29907 0.0279,0.0845 0.0426,0.27293 0.0332,0.42589 -0.0147,0.24101 -1.03561,3.07376 -8.39258,23.28736 -4.91987,13.51757 -8.42987,23.10389 -8.50682,23.23332 -0.072,0.12118 -0.25181,0.33442 -0.39949,0.47386 -0.14767,0.13943 -0.38117,0.31331 -0.51889,0.3864 -0.13773,0.0731 -0.36921,0.16088 -0.5144,0.19511 -0.22519,0.0531 -0.78799,0.0619 -3.82824,0.0601 -2.85348,-0.002 -3.59938,-0.0131 -3.7405,-0.0572 z m 14.86586,-0.0199 c -0.15508,-0.0533 -0.27363,-0.13055 -0.37549,-0.24481 -0.0819,-0.0918 -0.17249,-0.25134 -0.20136,-0.35446 -0.0311,-0.11096 -0.0429,-0.28381 -0.0291,-0.42342 0.0171,-0.17205 2.29003,-6.46212 8.39366,-23.22792 4.60368,-12.64559 8.416,-23.07591 8.47183,-23.1785 0.0558,-0.10258 0.17674,-0.27452 0.26867,-0.38207 0.0919,-0.10755 0.28796,-0.28176 0.43561,-0.38711 0.14764,-0.10536 0.39167,-0.23956 0.5423,-0.29821 0.27387,-0.10665 0.27387,-0.10665 3.87679,-0.11826 2.51657,-0.008 3.66917,0.002 3.82262,0.0341 0.12973,0.0269 0.28958,0.0992 0.39033,0.17642 0.0939,0.0719 0.20934,0.20498 0.25668,0.29564 0.0675,0.12924 0.0854,0.23598 0.0829,0.49445 -0.003,0.32964 -0.003,0.32964 -8.37046,23.30431 -4.60204,12.63606 -8.41812,23.07535 -8.4802,23.1984 -0.0646,0.12809 -0.24068,0.34983 -0.41182,0.51868 -0.21443,0.21155 -0.38471,0.33565 -0.60236,0.43895 -0.16688,0.0793 -0.40168,0.16436 -0.52177,0.18923 -0.14891,0.0308 -1.34812,0.0448 -3.77026,0.0439 -3.37297,-10e-4 -3.56332,-0.005 -3.77853,-0.0792 z m 28.67866,0 c -0.15507,-0.0533 -0.27362,-0.13055 -0.37548,-0.24481 -0.0819,-0.0918 -0.17248,-0.25134 -0.20135,-0.35446 -0.0311,-0.11097 -0.043,-0.28377 -0.0292,-0.42342 0.0169,-0.16989 0.81574,-2.41011 2.85405,-8.00308 1.55688,-4.27193 2.83967,-7.7993 2.85065,-7.83861 0.0189,-0.0676 -0.39657,-0.0721 -7.70031,-0.0824 -7.72026,-0.0109 -7.72026,-0.0109 -7.9552,-0.10587 -0.12922,-0.0523 -0.32798,-0.17858 -0.4417,-0.28082 -0.13165,-0.11836 -0.25586,-0.28563 -0.34193,-0.46048 -0.12159,-0.24697 -0.13497,-0.30988 -0.13306,-0.62569 0.002,-0.3511 0.002,-0.3511 1.29096,-3.89473 0.93613,-2.57383 1.32823,-3.60202 1.43274,-3.75698 0.0792,-0.11735 0.24125,-0.28043 0.36027,-0.3624 0.11901,-0.082 0.30604,-0.17602 0.41562,-0.20899 0.17149,-0.0516 1.34487,-0.0599 8.42759,-0.0599 8.22834,0 8.22834,0 10.41527,-6.00562 1.20279,-3.3031 2.19953,-6.03808 2.21496,-6.07773 0.0267,-0.0685 -0.35354,-0.0721 -7.633,-0.0721 -6.87103,0 -7.68372,-0.007 -7.88088,-0.0652 -0.1209,-0.0359 -0.28651,-0.10812 -0.36802,-0.16046 -0.0815,-0.0524 -0.21676,-0.16668 -0.30056,-0.25406 -0.0838,-0.0873 -0.20367,-0.27014 -0.26639,-0.40611 -0.0944,-0.20469 -0.11404,-0.30394 -0.11413,-0.57687 -1.1e-4,-0.32964 -8e-5,-0.32972 1.28926,-3.87326 0.70916,-1.949 1.33406,-3.62061 1.38869,-3.71469 0.0546,-0.0941 0.18494,-0.24643 0.28962,-0.33855 0.10467,-0.0922 0.29502,-0.20987 0.42301,-0.26162 0.23267,-0.0941 0.23267,-0.0941 12.65598,-0.10494 8.83574,-0.008 12.48602,0.002 12.64049,0.034 0.12762,0.0264 0.28756,0.0988 0.38782,0.17568 0.0939,0.0719 0.20935,0.20499 0.25667,0.29565 0.0674,0.12917 0.0854,0.23609 0.0829,0.49446 -0.003,0.32962 -0.003,0.32962 -8.36944,23.30227 -4.60152,12.63498 -8.41765,23.07426 -8.4803,23.19842 -0.0657,0.13021 -0.2404,0.35057 -0.41282,0.52068 -0.21444,0.21155 -0.38471,0.33565 -0.60238,0.43895 -0.16687,0.0793 -0.40167,0.16437 -0.52176,0.18923 -0.14892,0.0308 -1.34812,0.0448 -3.77026,0.0439 -3.37295,-10e-4 -3.56332,-0.005 -3.77853,-0.0792 z"
       id="path6" />
  </g>
</svg>
